# xmcd
#
# Track frame offsets:
#	150
#	13545
#	39109
#	58911
#	65469
#	74132
#	95646
#	113424
#	123394
#	141632
#	151275
#	166127
#	178550
#	192549
#	214804
#	224654
#	235239
#	258477
#
# Disc length: 4060 seconds
#
# Revision: 1
# Processed by: cddbd v1.5.2PL0 Copyright (c) Steve Scherf et al.
# Submitted via: audiograbber 1.83.01
#
DISCID=130fda12
DTITLE=Various Artist - Blue Note Trip Maestro (Somethin' Old) - cd 1
DYEAR=2007
DGENRE=Jazz
TTITLE0=Chet Baker - That Old Feeling
TTITLE1=Lou Donaldson - Who's Makin' Love
TTITLE2=Horace Silver - Liberated Brother
TTITLE3=Peggy Lee - Spinning Wheel
TTITLE4=Marc Moulin - Humpty Dumpty
TTITLE5=Rodney Jones - Groovebone, Part 1
TTITLE6=US3 featuring Rahsaan and Gerard Presencer - Cantaloop (Flip Fantasia)
TTITLE7=Gene Harris and the Three Sounds - Fever
TTITLE8=Medeski, Martin and Wood - Mami Gato
TTITLE9=Milt Buckner - The Beast
TTITLE10=Thad Jones and Mel Lewis - Get Out Of My Life
TTITLE11=Louis Neefs - Sixteen Tons
TTITLE12=Duke Pearson - Sandalia Dela
TTITLE13=The Jazz Crusaders - Agua Dulce
TTITLE14=Nancy Wilson - Call Me
TTITLE15=Dinah Washington - Destination Moon
TTITLE16=Gerald Wilson and his Orchestra - Viva Tirado
TTITLE17=Grant Green - My Favorite Things
EXTD=YEAR: 2007
EXTT0=
EXTT1=
EXTT2=
EXTT3=
EXTT4=
EXTT5=
EXTT6=
EXTT7=
EXTT8=
EXTT9=
EXTT10=
EXTT11=
EXTT12=
EXTT13=
EXTT14=
EXTT15=
EXTT16=
EXTT17=
PLAYORDER=
